<svg xmlns="http://www.w3.org/2000/svg" viewBox="0 0 24 24" fill="none">
  <!-- Purple grid (left side) -->
  <rect x="2.75" y="4.75" width="2.5" height="2.5" rx=".6" fill="#7b5ff5"/>
  <rect x="5.75" y="4.75" width="2.5" height="2.5" rx=".6" fill="#7b5ff5"/>
  <rect x="8.75" y="4.75" width="2.5" height="2.5" rx=".6" fill="#7b5ff5"/>
  <rect x="2.75" y="7.75" width="2.5" height="2.5" rx=".6" fill="#7b5ff5"/>
  <rect x="2.75" y="10.75" width="2.5" height="2.5" rx=".6" fill="#7b5ff5"/>
  <rect x="2.75" y="13.75" width="2.5" height="2.5" rx=".6" fill="#7b5ff5"/>
  <rect x="2.75" y="16.75" width="2.5" height="2.5" rx=".6" fill="#7b5ff5"/>
  <rect x="5.75" y="16.75" width="2.5" height="2.5" rx=".6" fill="#7b5ff5"/>
  <rect x="8.75" y="16.75" width="2.5" height="2.5" rx=".6" fill="#7b5ff5"/>
  <!-- Cyan grid (right side) -->
  <rect x="12.75" y="4.75" width="2.5" height="2.5" rx=".6" fill="#2ecfc1"/>
  <rect x="15.75" y="4.75" width="2.5" height="2.5" rx=".6" fill="#2ecfc1"/>
  <rect x="18.75" y="4.75" width="2.5" height="2.5" rx=".6" fill="#2ecfc1"/>
  <rect x="12.75" y="7.75" width="2.5" height="2.5" rx=".6" fill="#2ecfc1"/>
  <rect x="12.75" y="10.75" width="2.5" height="2.5" rx=".6" fill="#2ecfc1"/>
  <rect x="15.75" y="10.75" width="2.5" height="2.5" rx=".6" fill="#2ecfc1"/>
  <rect x="18.75" y="10.75" width="2.5" height="2.5" rx=".6" fill="#2ecfc1"/>
  <rect x="18.75" y="13.75" width="2.5" height="2.5" rx=".6" fill="#2ecfc1"/>
  <rect x="12.75" y="16.75" width="2.5" height="2.5" rx=".6" fill="#2ecfc1"/>
  <rect x="15.75" y="16.75" width="2.5" height="2.5" rx=".6" fill="#2ecfc1"/>
  <rect x="18.75" y="16.75" width="2.5" height="2.5" rx=".6" fill="#2ecfc1"/>
</svg>
